<svg fill="none" height="86" viewBox="0 0 84 86" width="84" xmlns="http://www.w3.org/2000/svg"><g stroke="#f89e34" stroke-width="4"><path d="m25.3262 5.53564c-16.36394 25.82486-6.1312 67.60136 24.7487 77.07476"/><path d="m25.3262 6.03564c32.0957 2.85285 48.3969 40.47576 41.0122 68.79646"/><path d="m24.9727 5.53564 33.9411 74.24626"/><path d="m7.29492 22.5061c16.74688 8.8531 37.73488-2.8244 44.54768-19.09167"/><path d="m2.69873 40.5374c24.60227 7.8923 54.44927-4.408 65.05387-28.2842"/><path d="m5.88062 60.3364c27.65718 6.8291 61.50708-5.5372 72.47848-33.234"/><path d="m81.5295 42.3443c.1335 10.8094-3.9123 21.2294-11.2505 28.9755-7.3382 7.746-17.37 12.186-27.896 12.3465-10.5259.1606-20.6872-3.9714-28.2559-11.49-7.5688-7.5187-11.92747-17.8105-12.12046-28.619-.19299-10.8086 3.79544-21.2519 11.09086-29.0404 7.2955-7.78852 17.3026-12.28667 27.8275-12.5083s20.7086 3.85134 28.3186 11.326c7.61 7.4746 12.0252 17.741 12.2777 28.5483"/><path d="m16.8408 74.832c24.5785 8.6526 55.4392-4.1511 64.7003-28.9914"/><path d="m81.0933 48.8629c.3716-2.5462.508-5.1225.4073-7.6948"/></g></svg>